<svg width="335" height="269" viewBox="0 0 335 269" fill="none" xmlns="http://www.w3.org/2000/svg">
<mask id="mask0_73_1965" style="mask-type:alpha" maskUnits="userSpaceOnUse" x="73" y="0" width="195" height="195">
<circle cx="170.18" cy="97.1803" r="97.1803" fill="#D9D9D9"/>
</mask>
<g mask="url(#mask0_73_1965)">
<path d="M223.456 177.412C223.01 177.73 222.5 178.049 222.054 178.368C221.544 178.686 221.098 179.005 220.589 179.26C220.142 179.515 219.76 179.77 219.314 180.025C219.25 180.088 219.187 180.088 219.123 180.152C217.657 181.044 216.128 181.873 214.598 182.637C214.152 182.892 213.642 183.147 213.196 183.338C213.196 183.338 213.133 183.402 213.069 183.402C212.559 183.657 212.049 183.912 211.539 184.167C210.52 184.676 209.437 185.123 208.417 185.569C207.907 185.824 207.334 186.015 206.824 186.206C206.314 186.397 205.74 186.652 205.231 186.843C204.721 187.034 204.147 187.289 203.638 187.48C203.638 187.48 203.638 187.48 203.574 187.48C203.064 187.672 202.49 187.863 201.981 188.054C200.834 188.436 199.623 188.819 198.476 189.201C198.093 189.328 197.647 189.456 197.265 189.583C196.054 189.966 194.843 190.284 193.633 190.539C193.187 190.667 192.74 190.73 192.231 190.858C191.084 191.113 189.873 191.368 188.726 191.623C188.471 191.686 188.28 191.686 188.025 191.75C187.642 191.814 187.196 191.877 186.814 191.941C186.24 192.005 185.731 192.132 185.157 192.196C184.902 192.26 184.647 192.26 184.392 192.324C184.074 192.387 183.691 192.451 183.309 192.451C182.29 192.578 181.206 192.706 180.187 192.833C179.868 192.897 179.486 192.897 179.167 192.961H179.103C178.657 193.025 178.211 193.025 177.765 193.088C177.319 193.152 176.873 193.152 176.427 193.152C176.172 193.152 175.853 193.216 175.598 193.216C175.089 193.216 174.642 193.279 174.196 193.279C173.559 193.279 172.986 193.343 172.348 193.343C171.711 193.343 171.138 193.343 170.5 193.343C170.054 193.343 169.608 193.343 169.162 193.343C142.27 192.961 118.118 181.554 100.848 163.456C100.848 163.456 100.848 163.392 100.785 163.392C98.8728 161.672 100.53 152.495 108.24 146.696C117.927 139.368 141.123 134.779 141.123 134.779C141.123 134.779 150.108 133.314 183.437 140.26C202.937 144.338 217.785 150.265 226.069 166.324C227.79 169.637 229.51 174.735 223.456 177.412Z" fill="white"/>
<path d="M183.628 139.559C195.863 142.044 208.927 144.721 218.995 152.814C222.373 155.554 224.603 159.569 226.451 163.456C227.343 165.368 228.236 167.343 228.937 169.446C229.319 170.848 229.892 172.441 229.574 174.098C229.51 174.544 229.128 175.118 228.809 175.436C227.343 176.902 225.75 177.794 224.157 178.941C214.789 185.441 204.02 190.029 192.868 192.451C168.015 197.868 141.123 193.662 119.265 180.598C112 176.201 105.309 170.848 99.5738 164.539C98.9365 163.775 98.9365 162.5 98.9365 161.672C99.0002 159.76 99.5101 157.912 100.147 156.191C101.677 152.24 103.652 148.289 107.03 145.549C109.451 143.892 112.064 142.49 114.74 141.343C123.152 137.775 132.01 135.289 141.123 134.27C141.888 134.206 142.015 135.289 141.25 135.417C132.52 137.201 123.853 139.877 115.76 143.51C112.829 144.976 109.706 146.25 107.348 148.544C105.118 150.966 103.525 153.961 102.25 157.02C101.422 158.868 100.848 161.799 101.103 163.265C105.118 168.044 109.834 172.25 114.932 175.882C142.843 195.382 185.221 196.657 214.917 180.407C217.593 178.941 220.206 177.284 222.691 175.564C223.902 174.735 225.177 174.034 226.133 173.078C226.196 173.015 226.133 173.078 226.133 173.142C226.133 173.206 226.069 173.27 226.069 173.27C226.133 172.505 225.878 171.485 225.559 170.466C224.412 166.77 222.564 162.882 220.588 159.505C217.466 154.471 212.177 151.284 206.824 148.735C203.128 147.015 199.24 145.677 195.289 144.402C191.338 143.127 187.324 142.044 183.309 141.088C182.289 140.833 182.608 139.368 183.628 139.559Z" fill="black"/>
<path d="M244.613 216.921H83.4512C83.4512 216.921 86.0639 190.666 96.0051 169.701C99.6374 162.054 100.848 150.838 108.049 145.931C115.441 140.897 131.182 136.882 136.662 136.245C139.721 135.862 139.02 135.608 141.186 135.034C141.887 136.946 148.961 155.681 165.912 162.563C180.505 168.49 189.172 164.539 190.51 157.975C191.338 153.769 188.726 146.887 187.387 144.657C186.623 144.019 186.113 143.063 185.858 142.108L185.348 140.005C186.495 139.75 187.579 139.431 188.726 139.112C189.299 139.24 189.936 139.176 190.446 139.495C195.799 142.426 211.922 146.568 220.334 155.426C223.647 158.867 228.809 171.103 229.637 179.068C231.995 200.926 244.613 216.921 244.613 216.921Z" fill="white"/>
<path d="M245.505 217.304C197.711 217.431 130.608 218.005 83.5152 217.814C82.9416 217.814 82.4956 217.304 82.5593 216.73C83.1328 212.206 83.8975 207.809 84.7897 203.348C87.1475 191.176 90.7162 179.196 96.0691 168.044C98.2358 162.819 99.3191 157.338 101.932 152.24C103.461 149.181 105.755 146.25 108.814 144.529C113.721 141.598 119.138 139.75 124.554 138.093C127.804 137.137 131.118 136.245 134.432 135.608C136.089 135.225 137.746 135.289 139.275 134.652C140.103 134.333 141.697 133.377 142.206 134.588C146.858 146.632 155.844 158.039 168.398 162.309C174.898 164.667 186.177 166.642 189.491 158.676C190.51 155.681 189.554 152.431 188.662 149.436C188.152 147.907 187.515 146.314 186.75 145.039L186.942 145.23C185.795 144.274 185.157 142.745 184.966 141.343L184.648 140.069C184.52 139.559 184.839 139.049 185.349 138.922C186.496 138.73 187.643 138.348 188.79 138.029C189.427 138.029 190.447 138.157 191.275 138.603C198.285 141.853 206.25 144.211 212.942 148.289C216.701 150.52 220.525 153.132 222.947 156.892C227.407 164.348 230.275 172.824 231.103 181.426C232.888 193.725 237.858 205.515 244.996 215.647L245.25 215.966L245.378 216.093L245.442 216.157C245.442 216.157 245.442 216.093 245.505 216.284C245.569 216.667 245.569 217.113 245.505 217.304ZM243.785 216.475C243.657 216.667 243.657 217.113 243.785 217.304C243.912 217.431 243.849 217.368 243.849 217.368L243.785 217.304L243.657 217.113L243.402 216.794C239.388 210.676 236.074 204.113 233.652 197.294C231.741 192.26 230.339 187.034 229.574 181.681C229.319 179.77 229 177.221 228.554 175.373C227.089 169.255 224.731 163.137 221.353 157.848C220.27 156.127 218.677 154.789 217.084 153.515C212.049 149.691 206.123 147.333 200.26 145.039L194.27 142.809C192.295 142.044 189.937 141.216 188.726 140.005H189.236C188.089 140.387 186.942 140.706 185.795 140.961L186.496 139.814L186.814 141.088C187.069 142.235 187.324 143.255 188.216 144.02C188.28 144.083 188.344 144.147 188.407 144.211C190.128 147.333 191.148 150.583 191.657 154.088C192.741 160.142 188.917 164.922 183.054 166.069C174.961 167.662 165.275 164.157 158.584 159.632C150.172 153.706 144.118 144.912 140.422 135.417L141.569 135.99C140.996 136.181 140.613 136.373 140.04 136.627C139.466 136.946 138.765 137.137 138.128 137.265C138.192 137.647 138 136.5 138.255 138.029C137.045 138.157 136.089 138.221 134.942 138.475C131.692 138.985 128.442 139.75 125.255 140.642C120.986 141.789 116.78 143.191 112.829 145.039C110.853 145.995 108.942 147.015 107.476 148.353C105.947 149.691 104.736 151.475 103.716 153.387C100.721 159.186 99.2554 166.132 96.1965 171.995C89.824 186.206 86.2554 201.691 84.5348 217.176L83.5789 216.157C129.844 215.966 196.755 216.221 243.785 216.475Z" fill="black"/>
<path d="M114.996 216.921L112.128 193.279" stroke="#544D4D" stroke-width="3" stroke-miterlimit="10" stroke-linecap="round" stroke-linejoin="round"/>
<path d="M226.324 185.25C226.324 185.25 224.412 189.902 224.986 194.554C225.559 199.206 227.216 206.024 224.858 216.922" stroke="#544D4D" stroke-width="3" stroke-miterlimit="10" stroke-linecap="round" stroke-linejoin="round"/>
<path d="M189.617 156.51C188.279 163.073 179.612 167.024 165.019 161.098C149.852 154.98 143.289 140.387 141.632 136.054C150.617 119.23 144.372 107.569 144.372 107.569C165.083 105.784 183.181 130 183.181 130L185.985 141.98C186.24 143 186.749 143.892 187.514 144.529C188.852 146.887 190.446 152.304 189.617 156.51Z" fill="white"/>
<path d="M141.314 136.245C142.524 134.397 143.289 132.23 143.799 130.127C144.755 125.73 145.073 121.27 145.137 116.809V115.152C144.946 113.495 144.373 111.774 143.735 110.245C142.907 108.206 145.902 106.931 146.858 108.971C146.985 109.225 146.985 109.672 146.985 109.926C147.176 118.593 147.559 129.745 142.078 136.946C141.696 137.328 140.931 136.755 141.314 136.245Z" fill="black"/>
<path d="M183.882 129.873C184.838 130.446 185.156 131.211 185.284 131.976C185.666 133.505 185.539 135.162 185.921 136.755C186.24 138.284 187.196 139.75 187.451 141.343C187.769 143 188.725 146.505 189.107 148.226C189.235 148.608 188.98 149.054 188.534 149.118C188.279 149.181 188.088 149.118 187.897 148.99C187.068 148.289 186.686 147.588 186.176 146.696C185.348 145.167 184.774 143.765 184.264 142.044C183.818 140.515 184.009 138.858 183.627 137.265C183.308 135.735 182.416 134.27 182.098 132.676C181.906 131.912 181.843 131.083 182.416 130.127C182.799 129.745 183.436 129.618 183.882 129.873Z" fill="black"/>
<path d="M188.47 146.696C176.299 146.059 166.358 142.235 156.671 124.966C164.828 132.167 174.451 134.907 184.583 136.181L185.921 142.044C186.176 143.064 187.706 146.059 188.47 146.696Z" fill="black"/>
<path d="M187.961 144.338C190.128 148.417 191.402 153.515 190.064 158.039C189.044 161.225 186.113 163.583 182.927 164.475C175.534 166.451 166.995 163.328 160.431 159.824C152.338 155.299 146.348 147.716 142.525 139.431C142.27 138.794 143.162 138.284 143.544 138.922C144.882 141.598 146.412 144.211 148.132 146.569C149.853 148.99 151.828 151.221 154.059 153.196C160.559 159.059 169.353 162.691 178.147 162.691C187.196 162.436 190.637 157.657 188.534 148.863C188.216 147.461 187.706 145.995 187.005 144.784C186.623 144.274 187.578 143.701 187.961 144.338Z" fill="black"/>
<path d="M212.623 67.8039C213.77 73.1568 209.946 78.8921 209.946 93.1666C209.946 107.76 207.27 123.627 196.245 134.652C186.75 144.147 175.853 143.765 163.044 133.76C161.26 132.358 155.015 127.642 153.422 126.049C151.573 124.201 150.554 122.863 149.662 121.461C148.897 120.186 149.088 112.794 148.005 111.073C145.201 106.422 144.627 111.456 140.995 107.377C135.961 101.897 129.907 90.8725 132.902 71.3725C137.745 39.7647 162.789 36.0686 181.333 39.5735C200.005 43.1421 209.564 53.7205 212.623 67.8039Z" fill="white"/>
<path d="M144.181 113.049C142.716 110.627 140.868 108.461 139.147 106.23C137.426 103.873 136.024 101.387 134.877 98.7107C128.377 82.9705 129.333 62.3872 140.868 49.1323C148.77 40.0833 161.26 37.0882 172.73 37.7254C184.201 38.4264 196.118 41.3578 204.593 49.6421C209.5 54.4215 212.622 60.7941 214.024 67.4215C214.471 69.5245 214.152 71.8186 213.642 73.7941C212.176 79.3382 210.774 84.6274 210.647 90.3627C210.711 98.9019 210.456 107.632 207.971 115.853C206.186 121.333 204.083 126.814 200.77 131.593C197.328 136.436 192.167 140.323 186.24 141.471C174.323 143.892 163.172 136.373 155.27 128.216C154.951 127.833 155.397 127.387 155.779 127.642C160.304 131.083 164.956 134.27 169.99 136.436C184.52 143.127 196.564 136.946 202.936 122.926C208.289 112.73 209.819 101.706 209.372 90.299C209.372 87.4313 209.5 84.5637 209.882 81.696C210.265 77.5539 211.667 73.4117 211.603 69.3333C210.52 62.7058 207.461 56.3333 202.872 51.4264C191.975 39.8921 171.073 36.5147 156.417 41.7401C139.147 47.8578 134.495 65.2549 133.539 81.8872C132.902 91.8284 135.833 101.578 143.353 108.397L146.348 111.52C147.368 112.922 145.201 114.578 144.181 113.049Z" fill="black"/>
<path d="M151.701 92.7843C151.701 92.7843 149.725 83.2254 140.421 84.3725C132.392 85.3921 129.588 104.637 147.814 109.99" fill="white"/>
<path d="M146.985 101.642C145.519 100.814 144.5 99.4117 144.436 97.6911C144.5 96.4166 144.691 94.9509 144.372 93.6764C144.181 92.4656 142.907 92.147 141.951 92.2107C140.931 92.4019 140.294 93.6764 140.103 94.696C140.103 94.7597 140.039 94.9509 140.039 95.0146C139.975 95.3333 139.465 95.3333 139.338 95.0146C138.51 92.5294 140.358 89.7892 143.034 90.1078C146.794 90.3627 147.304 94.3137 146.603 97.3088C146.22 98.5833 146.73 99.7303 147.431 100.814L147.559 101.005C147.877 101.387 147.367 101.897 146.985 101.642Z" fill="black"/>
<path d="M151.382 92.8479C149.917 89.0881 146.73 85.5195 142.461 85.5832C142.078 85.5195 141.441 85.647 141.059 85.647C139.976 85.7107 139.083 86.093 138.255 86.8577C134.177 90.9362 134.878 98.1372 138.191 102.662C139.338 104.255 140.804 105.657 142.461 106.804C144.118 107.951 145.966 108.843 147.941 109.608C148.387 109.735 148.196 110.436 147.75 110.372C143.48 109.48 139.402 107.377 136.598 103.872C132.265 98.647 131.373 89.9166 136.534 84.8185C137.681 83.7989 139.275 83.0342 140.868 83.0342C141.377 83.0342 142.142 82.9068 142.652 83.0342C145.328 83.1617 147.877 84.4999 149.534 86.6028C151 88.3871 151.828 90.5538 152.083 92.7205C152.083 93.1028 151.51 93.2303 151.382 92.8479Z" fill="black"/>
<path d="M189.49 118.211C187.961 119.549 185.667 120.377 182.544 119.103C181.078 118.529 179.931 117.382 179.039 116.108C179.103 116.108 182.289 113.814 189.49 118.211Z" fill="white"/>
<path d="M169.672 36.4509C132.01 35.6862 128.186 67.2303 130.544 86.0293C133.157 106.931 145.647 115.152 145.647 115.152L146.476 109.608C146.476 109.608 143.48 108.588 140.613 106.485C130.672 98.9656 133.73 85.2646 140.485 84.4362C147.24 83.544 150.172 88.4509 151.191 91.1274C154.76 79.3382 149.726 76.4068 154.76 68.0588C170.5 51.044 181.461 62.5146 189.172 64.745C197.583 67.1029 203.127 64.4264 206.25 61.4313C208.48 59.2646 211.348 63.3431 211.348 63.3431C211.348 63.3431 207.206 37.2156 169.672 36.4509Z" fill="black"/>
<path d="M256.657 53.7206C295.338 128.216 227.343 212.27 146.284 191.75C109.897 182.701 80.647 151.157 74.5931 114.132C67.7108 77.299 84.3431 37.7255 115.441 16.8873C158.074 -12.4265 217.147 -2.67648 247.672 39.2549C247.863 39.4461 247.799 39.7647 247.544 39.9559C247.353 40.1471 247.034 40.0833 246.843 39.8284C242.637 34.4118 237.858 29.5049 232.632 25.1078C224.029 17.7794 213.961 12.0441 203.319 8.15686C149.152 -11.4706 89.6961 21.1569 77.8431 77.8088C64.4608 141.279 118.436 199.716 182.799 190.985C232.441 184.74 269.338 138.922 265.26 89.0882C264.368 77.0441 261.181 65.1274 255.892 54.1667C255.765 53.9755 255.892 53.7206 256.083 53.5931C256.274 53.4657 256.529 53.5294 256.657 53.7206Z" fill="black"/>
</g>
</svg>
