<svg width="138" height="142" viewBox="0 0 138 142" fill="none" xmlns="http://www.w3.org/2000/svg">
<path d="M69.0001 138C30.86 138 0 107.094 0 69.0002C0 30.8601 30.9058 0 69.0001 0C107.14 0 138 30.9058 138 69.0002C138.046 107.14 107.14 138 69.0001 138Z" fill="#F4DA92"/>
<mask id="mask0_69_855" style="mask-type:alpha" maskUnits="userSpaceOnUse" x="0" y="4" width="139" height="139">
<path d="M69.0002 142C30.8601 142 0 111.094 0 73.0002C0 34.8601 30.9058 4 69.0002 4C107.14 4 138 34.9058 138 73.0002C138.046 111.14 107.14 142 69.0002 142Z" fill="#F7C0B5"/>
</mask>
<g mask="url(#mask0_69_855)">
<path d="M107.64 131.102C107.318 131.332 106.95 131.562 106.628 131.792C106.26 132.022 105.938 132.252 105.57 132.436C105.248 132.62 104.972 132.804 104.65 132.988C104.604 133.034 104.558 133.034 104.512 133.08C103.454 133.724 102.35 134.322 101.246 134.874C100.924 135.058 100.556 135.242 100.234 135.38C100.234 135.38 100.188 135.426 100.142 135.426C99.7744 135.61 99.4064 135.794 99.0384 135.978C98.3024 136.346 97.5204 136.668 96.7844 136.99C96.4164 137.174 96.0024 137.312 95.6344 137.45C95.2664 137.588 94.8524 137.772 94.4844 137.91C94.1164 138.048 93.7024 138.232 93.3344 138.37C93.3344 138.37 93.3344 138.37 93.2884 138.37C92.9204 138.508 92.5064 138.646 92.1384 138.784C91.3104 139.06 90.4364 139.336 89.6084 139.612C89.3324 139.704 89.0104 139.796 88.7344 139.888C87.8604 140.164 86.9864 140.394 86.1124 140.578C85.7904 140.67 85.4684 140.716 85.1004 140.808C84.2724 140.992 83.3984 141.176 82.5704 141.36C82.3864 141.406 82.2484 141.406 82.0644 141.452C81.7884 141.498 81.4664 141.544 81.1904 141.59C80.7764 141.636 80.4084 141.728 79.9944 141.774C79.8104 141.82 79.6264 141.82 79.4424 141.866C79.2124 141.912 78.9364 141.958 78.6604 141.958C77.9244 142.05 77.1424 142.142 76.4064 142.234C76.1764 142.28 75.9004 142.28 75.6704 142.326H75.6244C75.3024 142.372 74.9804 142.372 74.6584 142.418C74.3364 142.464 74.0144 142.464 73.6924 142.464C73.5084 142.464 73.2784 142.51 73.0944 142.51C72.7264 142.51 72.4043 142.556 72.0823 142.556C71.6223 142.556 71.2083 142.602 70.7483 142.602C70.2883 142.602 69.8743 142.602 69.4143 142.602C69.0923 142.602 68.7703 142.602 68.4483 142.602C49.0823 142.326 31.6023 134.092 19.1822 121.028C19.1822 121.028 19.1822 120.982 19.1362 120.982C20.5622 118.176 25.8522 113.116 31.3723 108.93C38.3643 103.64 48.2543 100.374 48.2543 100.374C48.2543 100.374 54.7403 99.3156 78.7984 104.33C97.1524 108.194 104.972 123.88 107.64 131.102Z" fill="#F7D3B5"/>
<path d="M83.9042 117.072C82.9382 121.81 76.6822 124.616 66.1481 120.384C53.2221 115.14 48.2541 100.374 48.2541 100.374C47.5641 89.7936 45.9541 80.7316 45.9541 80.7316C60.9041 79.4436 78.5682 96.9236 78.5682 96.9236L80.5922 105.572C80.7762 106.308 81.1442 106.952 81.6962 107.412C82.6622 109.068 84.5482 114.036 83.9042 117.072Z" fill="#F7D3B5"/>
<path d="M81.6961 107.458C72.9101 106.998 66.424 105.71 59.478 93.2436C65.366 98.4416 72.3121 100.42 79.6261 101.34L80.5921 105.572C80.7761 106.354 81.1441 106.998 81.6961 107.458Z" fill="#EFBDA5"/>
<path d="M99.8664 52.0275C100.694 55.8915 101.108 59.0195 98.8544 69.3236C96.6004 79.6276 100.924 89.9316 90.0684 99.3616C82.7544 105.71 69.9664 106.906 59.7543 99.9596C56.3043 97.6136 53.1303 94.3476 50.5543 90.0696C48.5303 86.7116 46.1843 83.5376 43.5623 80.6396C39.9283 76.6836 35.5583 68.7256 37.7203 54.6495C41.2163 31.7415 63.8943 29.1195 77.2804 31.6495C90.6664 34.1795 97.6124 41.8155 99.8664 52.0275Z" fill="#F7D3B5"/>
<path d="M55.8443 70.0136C55.8443 70.0136 54.4183 63.1135 47.7023 63.9415C41.9063 64.6776 39.8823 78.5696 53.0383 82.4336" fill="#F7D3B5"/>
<path d="M52.6241 76.1316C52.6241 76.1316 50.9681 75.0736 51.1521 73.2336C51.4281 71.0716 51.1521 69.7376 50.1401 69.3236C47.6101 68.2656 47.1041 71.2096 47.1961 71.5776" stroke="#423232" stroke-width="1.38" stroke-miterlimit="10" stroke-linecap="round" stroke-linejoin="round"/>
<path d="M87.7221 80.5936C87.7221 80.5936 89.4702 80.6856 91.1262 78.7076C92.0462 77.6036 92.8282 76.2236 92.3222 75.8096C91.8162 75.3496 83.4901 76.6376 82.9381 77.7416C82.3861 78.8456 85.6061 80.5936 87.7221 80.5936Z" fill="#EFBDA5"/>
<path d="M89.1022 65.1376C89.1022 65.1376 89.1942 69.5076 92.0002 74.3836C93.2422 76.5456 91.3562 80.0876 87.2622 80.6856" stroke="#423232" stroke-width="1.38" stroke-miterlimit="10" stroke-linecap="round" stroke-linejoin="round"/>
<path opacity="0.42" d="M64.1701 82.9396C66.7869 82.9396 68.9081 81.189 68.9081 79.0296C68.9081 76.8701 66.7869 75.1196 64.1701 75.1196C61.5534 75.1196 59.4321 76.8701 59.4321 79.0296C59.4321 81.189 61.5534 82.9396 64.1701 82.9396Z" fill="#ED938A"/>
<path opacity="0.42" d="M98.1182 75.2116C97.9802 77.7876 98.0262 80.3176 97.8422 82.8476C95.8182 82.3876 94.3462 80.8696 94.3462 79.0756C94.3462 77.1436 95.9562 75.5796 98.1182 75.2116Z" fill="#ED938A"/>
<path d="M40.106 98.6223C40.106 98.6223 46.822 95.9543 48.064 95.8623L48.156 96.9203C48.156 96.9203 42.82 99.2203 42.498 99.5883C42.222 99.9103 40.106 98.6223 40.106 98.6223Z" fill="#7E5D6D"/>
<path d="M122.952 158.284H6.66406C6.66406 158.284 7.35406 136.94 14.3461 121.714C19.6361 110.214 32.3321 102.624 41.5781 99.3123C44.2001 98.3923 46.2242 97.3803 48.1102 96.8743C48.1102 97.1043 48.2482 98.8063 48.2482 98.9903C48.2482 98.9903 55.5162 106.12 71.8922 106.994C79.4822 107.408 80.2182 102.67 80.2182 102.67C81.0922 102.486 81.9202 102.256 82.7482 101.98C83.0242 101.888 84.9562 101.106 85.1862 101.014C91.1203 102.578 98.3883 106.994 108.922 115.826C120.836 125.9 122.952 158.284 122.952 158.284Z" fill="#423232"/>
<mask id="mask1_69_855" style="mask-type:alpha" maskUnits="userSpaceOnUse" x="6" y="96" width="117" height="63">
<path d="M122.952 158.284H6.66357C6.66357 158.284 7.35358 136.94 14.3456 121.714C19.6356 110.214 32.3316 102.624 41.5777 99.3123C44.1997 98.3923 46.2237 97.3803 48.1097 96.8743C48.1097 97.1043 48.2477 98.8063 48.2477 98.9903C48.2477 98.9903 55.5157 106.12 71.8917 106.994C79.4817 107.408 80.2177 102.67 80.2177 102.67C81.0917 102.486 81.9198 102.256 82.7478 101.98C83.0238 101.888 84.9558 101.106 85.1858 101.014C91.1198 102.578 98.3878 106.994 108.922 115.826C120.836 125.9 122.952 158.284 122.952 158.284Z" fill="#423232"/>
</mask>
<g mask="url(#mask1_69_855)">
<path d="M48.1557 104.556C52.9857 111.364 65.8657 121.76 76.1697 123.738C81.0918 124.658 88.1298 107.776 81.7358 100.968C76.2617 95.1263 52.9857 93.6083 49.2597 96.1843C44.7057 99.2203 46.9597 102.9 48.1557 104.556Z" stroke="#FFFF8D" stroke-width="2.30001" stroke-miterlimit="10"/>
</g>
<path d="M100.55 111.502C103.522 111.502 105.932 109.093 105.932 106.12C105.932 103.148 103.522 100.738 100.55 100.738C97.5776 100.738 95.168 103.148 95.168 106.12C95.168 109.093 97.5776 111.502 100.55 111.502Z" fill="#FFFF8D"/>
<path d="M29.4338 158.284L27.3638 141.264" stroke="#544D4D" stroke-width="1.38" stroke-miterlimit="10" stroke-linecap="round" stroke-linejoin="round"/>
<path d="M109.75 135.422C109.75 135.422 108.37 138.78 108.784 142.138C109.198 145.496 110.394 150.418 108.692 158.284" stroke="#544D4D" stroke-width="1.38" stroke-miterlimit="10" stroke-linecap="round" stroke-linejoin="round"/>
<path d="M40.1059 98.6223C40.9799 98.3463 42.4979 98.6223 42.9579 99.4043C44.7519 102.348 49.0759 110.95 50.8699 128.016C52.2959 141.356 50.1339 165.368 50.1339 165.368L5.46777 163.252C5.46777 163.252 6.80178 140.574 10.7118 125.348C14.5298 110.582 24.5578 103.958 40.1059 98.6223Z" fill="#423232"/>
<path d="M86.3359 101.428C86.3359 101.428 100.55 128.154 96.41 163.85H127.092C127.092 163.85 126.954 135.514 120.054 120.104C113.154 104.74 89.0039 100.232 89.0039 100.232C89.0039 100.232 87.4859 100.968 86.3359 101.428Z" fill="#423232"/>
<path d="M86.3359 101.428L85.2319 101.106C85.2319 101.106 86.8419 100.324 87.5319 99.8643L87.9459 99.6343C87.9459 99.6343 90.1539 100.646 90.9359 101.014C91.7179 101.382 88.2219 103.084 88.2219 103.084C88.2219 103.084 86.4739 101.428 86.3359 101.428Z" fill="#7E5D6D"/>
<path d="M36.2878 114.4C36.2878 114.4 29.9398 118.862 30.5378 123.6C31.1358 128.338 50.6858 158.008 50.6858 158.008C50.6858 158.008 52.9858 141.908 50.3638 123.692C50.3638 123.692 48.4778 121.162 45.0278 118.632C42.7278 117.022 39.7838 115.32 36.2878 114.4Z" fill="#AD7E5A"/>
<path d="M110.532 123.6C110.716 120.656 103.908 115.872 103.908 115.872C101.194 116.654 99.2618 117.896 97.8818 119.23C94.7997 122.128 94.3857 125.394 94.3857 125.394L94.5697 126.222C97.8358 140.436 96.8698 158.928 96.8698 158.928C96.8698 158.928 110.348 126.544 110.532 123.6Z" fill="#AD7E5A"/>
<path d="M50.3179 123.692C50.3179 123.692 47.0979 120.288 43.2339 117.896C34.6779 112.606 22.1199 110.168 21.9819 106.074C21.8899 101.474 37.1619 91.8603 47.2819 88.5943C47.2819 88.6403 47.2819 88.6863 47.2819 88.7323C47.2819 88.7783 47.2819 88.8243 47.2819 88.9163C47.2819 89.0083 47.2819 89.1003 47.3279 89.1923C47.3279 89.3303 47.3739 89.4683 47.3739 89.6063C47.3739 89.6983 47.3739 89.7443 47.4199 89.8363C47.7419 92.5963 48.0179 95.6783 48.2479 98.9443V98.9903C48.2479 98.9903 46.1319 99.6803 47.6499 110.214C48.0639 112.79 49.6279 117.298 50.3179 123.692Z" fill="#AD7E5A"/>
<path d="M94.3858 125.164C94.3858 125.164 91.3038 113.204 89.7858 109.386C88.2678 105.614 85.4158 101.336 85.2778 101.106C87.0718 100.278 88.6818 99.2203 90.1078 97.9783C91.5338 96.7363 92.6838 95.4943 93.6498 94.2523C98.8019 96.9663 113.568 105.522 114.304 109.8C115.132 114.446 97.2379 114.17 94.3858 125.164Z" fill="#AD7E5A"/>
<path d="M77.78 131.88C80.7524 131.88 83.162 129.471 83.162 126.498C83.162 123.526 80.7524 121.116 77.78 121.116C74.8076 121.116 72.3979 123.526 72.3979 126.498C72.3979 129.471 74.8076 131.88 77.78 131.88Z" fill="#FFFF8D"/>
<path d="M77.78 129.258C79.3043 129.258 80.54 128.023 80.54 126.498C80.54 124.974 79.3043 123.738 77.78 123.738C76.2557 123.738 75.02 124.974 75.02 126.498C75.02 128.023 76.2557 129.258 77.78 129.258Z" fill="#FFBE71"/>
<path d="M103.908 115.872C101.194 116.654 99.2618 117.896 97.8818 119.23C94.7997 122.128 94.3857 125.394 94.3857 125.394" stroke="#894B33" stroke-width="1.38" stroke-miterlimit="10" stroke-linecap="round" stroke-linejoin="round"/>
<path d="M50.3177 123.692C50.3177 123.692 48.4317 121.162 44.9817 118.632C42.7277 116.976 39.7837 115.32 36.2417 114.354" stroke="#894B33" stroke-width="1.38" stroke-miterlimit="10" stroke-linecap="round" stroke-linejoin="round"/>
<path d="M72.6033 69.7561C71.4993 69.7101 70.6713 68.7901 70.7633 67.6861L70.8093 66.3981C70.8553 65.2941 71.7753 64.4661 72.8793 64.5581C73.9833 64.6041 74.8113 65.5241 74.7193 66.6281L74.6733 67.9161C74.6273 68.9741 73.7073 69.8021 72.6033 69.7561Z" fill="#423232"/>
<path d="M91.9692 70.4461C90.9572 70.4001 90.1752 69.5261 90.2212 68.514L90.2672 67.3181C90.3132 66.306 91.1872 65.524 92.1992 65.57C93.2112 65.616 93.9932 66.49 93.9472 67.502L93.9012 68.6981C93.8552 69.7101 92.9812 70.4921 91.9692 70.4461Z" fill="#423232"/>
<path d="M77.0651 67.0881C77.0651 67.0881 75.8691 65.3861 73.7991 65.064C72.0971 64.788 70.2111 65.6161 69.9351 66.5821" stroke="#423232" stroke-width="1.38" stroke-miterlimit="10" stroke-linecap="round" stroke-linejoin="round"/>
<path d="M90.6353 67.5021C90.6353 67.5021 90.6353 66.0301 92.7513 66.0301C94.4993 66.0301 95.2353 67.6401 95.2353 67.6401" stroke="#423232" stroke-width="1.38" stroke-miterlimit="10" stroke-linecap="round" stroke-linejoin="round"/>
<path d="M78.9509 59.682C79.9169 60.004 80.8829 59.13 80.6989 58.072C80.6069 57.52 80.3769 56.968 79.9168 56.554C78.5368 55.312 72.8328 54.208 69.3828 55.818C66.3468 57.29 74.5348 58.21 78.9509 59.682Z" fill="#423232"/>
<path d="M92.705 60.418C91.923 60.694 91.0949 59.866 91.233 58.9C91.279 58.394 91.463 57.888 91.831 57.52C92.935 56.416 96.707 55.542 99.099 57.244C101.169 58.67 96.293 59.084 92.705 60.418Z" fill="#423232"/>
<path d="M84.9252 85.9348C84.9712 86.6708 84.4192 87.9588 83.4072 88.8788C78.2091 85.7048 75.8631 87.3608 75.8631 87.3608C74.0231 84.5548 74.4371 80.7368 78.8992 83.6348C82.0272 85.6128 83.9132 85.9348 84.9252 85.9348Z" fill="#423232"/>
<path d="M83.4073 88.8789C82.3033 89.8449 80.6473 90.4429 78.3933 89.5229C77.3353 89.1089 76.5073 88.2809 75.8633 87.3609C75.8633 87.3609 78.2093 85.7048 83.4073 88.8789Z" fill="#FE9DAB"/>
<path d="M85.7991 85.7509C85.7991 85.7509 83.8671 86.8089 78.8991 83.6349C72.965 79.8169 74.161 87.8209 78.347 89.5229C82.7171 91.3169 84.9711 87.4069 84.9251 85.9349" stroke="#423232" stroke-width="1.38" stroke-miterlimit="10" stroke-linecap="round" stroke-linejoin="round"/>
<path d="M75.8633 87.3609C75.8633 87.3609 78.2093 85.7048 83.4073 88.8789" stroke="#423232" stroke-width="1.38" stroke-miterlimit="10" stroke-linecap="round" stroke-linejoin="round"/>
<path d="M100.555 51.2729C100.417 50.5829 100.233 49.8469 100.003 49.1569C99.7728 48.4669 99.2208 47.8689 98.4848 47.7309C96.0928 47.3169 93.7927 43.1769 90.4807 42.7169C79.9467 41.2909 72.9087 42.1649 63.0187 46.0289C52.8067 49.9849 63.7547 64.291 56.4407 68.983C56.0727 67.695 54.2787 62.451 48.3906 63.187C42.8246 63.877 40.7086 76.757 52.2087 81.173C47.1946 89.361 47.5626 86.095 43.8826 81.679C40.2026 77.263 32.8426 65.809 37.8106 49.0649C42.7786 32.3209 65.2727 23.5809 86.2027 32.0909C89.7907 33.5629 91.9527 37.1969 95.0807 37.7949C124.199 43.3609 101.245 54.585 100.555 51.2729Z" fill="#AD827B"/>
<path d="M72.2645 42.5789C72.2645 42.5789 68.3545 41.4289 66.0085 47.5469C63.6625 53.6649 55.4745 62.083 48.6664 52.2849C41.8584 42.5329 52.0705 34.7129 62.6965 37.8869C73.3225 41.0609 72.1265 38.6689 72.2645 42.5789Z" fill="#AD827B"/>
<path d="M79.0267 38.1169C79.0267 38.1169 89.3768 44.6949 96.1848 42.1189C100.463 40.5089 105.293 34.5749 101.935 30.1589C97.9328 24.8689 85.5588 28.8709 78.6587 26.6629C68.3087 23.3509 52.2547 21.1429 44.7107 33.5629C42.8247 36.6909 41.1227 39.8649 38.4547 42.3489C35.6946 44.9249 32.9346 49.111 32.7046 55.643C32.2906 68.661 42.5027 79.977 42.5027 79.977C42.5027 79.977 36.4306 57.713 47.8847 54.401C59.3387 51.089 62.5127 39.6349 70.1027 39.6349C77.6927 39.6349 74.1507 31.0789 79.0267 38.1169Z" fill="#AD827B"/>
<path d="M89.1006 43.9589C89.1006 43.9589 97.4266 54.355 103.683 53.757C109.939 53.159 116.977 39.7269 99.7727 35.1269C82.5686 30.5269 89.1006 43.9589 89.1006 43.9589Z" fill="#AD827B"/>
<path d="M72.2644 42.5789C72.2644 42.5789 77.7384 56.103 92.2745 57.713C106.857 59.369 112.745 32.6889 90.4805 30.1589C68.2164 27.6289 72.2644 42.5789 72.2644 42.5789Z" fill="#AD827B"/>
<path d="M60.6266 36.2309C60.6266 36.2309 64.0306 51.687 71.2066 52.377C78.3826 53.067 76.4506 33.1029 67.0666 31.7229C57.6826 30.3429 60.6266 36.2309 60.6266 36.2309Z" fill="#AD827B"/>
<path d="M50.9173 69.7198C50.9173 69.7198 47.0775 69.1451 47.3655 74.5088C47.5095 77.2385 47.5095 78.7231 47.4615 79.4894C47.4135 80.0162 47.7495 80.4951 48.2295 80.6866C48.8054 80.9261 49.4294 80.6866 49.7174 80.1119C50.1493 79.3457 50.6293 78.2921 50.6293 77.4301C50.6293 75.9934 52.1652 74.7004 52.1652 74.7004C52.1652 74.7004 50.7733 73.5031 50.9173 69.7198Z" fill="white"/>
<path d="M47.5099 77.2864C47.5579 78.34 47.5099 79.0583 47.5099 79.4893C47.4619 80.0161 47.7979 80.495 48.2779 80.6866C48.8538 80.926 49.4778 80.6866 49.7658 80.1119C50.1978 79.3457 50.6777 78.2921 50.6777 77.4301C50.6777 77.3822 50.6777 77.2864 50.6777 77.2385C49.6698 77.6216 48.5179 77.909 47.5099 77.2864Z" fill="#E5E5E5"/>
</g>
</svg>
