<svg width="375" height="545" viewBox="0 0 375 545" fill="none" xmlns="http://www.w3.org/2000/svg">
<path d="M-38.6923 17.0645L-40.6636 17.6326L-40.4912 19.6769L-16.5065 303.991L-16.3157 306.253L-14.0459 306.281L740.969 315.5L743.5 315.531V313C743.5 264.8 739.774 193.72 728.562 137.192C722.964 108.972 715.453 84.1171 705.449 67.5499C700.442 59.2593 694.692 52.8414 688.049 49.201C681.306 45.506 673.826 44.7773 665.733 47.5654C647.603 53.812 615.304 55.6977 574.776 54.5988C534.376 53.5033 486.186 49.4613 436.528 44.0701C352.87 34.9876 265.182 22.0917 203.756 13.0581C192.259 11.3672 181.682 9.81168 172.224 8.44178C75.9088 -5.5078 -8.39565 8.33363 -38.6923 17.0645Z" fill="white" stroke="black" stroke-width="5"/>
<circle cx="187.5" cy="294.5" r="216.5" fill="white"/>
<path d="M216.219 538.489L189.202 509.166L209.396 499.205L216.219 538.489Z" fill="white"/>
</svg>
