<svg width="375" height="495" viewBox="0 0 375 495" fill="none" xmlns="http://www.w3.org/2000/svg">
<path d="M-112.922 40.9608L-114.39 41.8233L-114.125 43.505L-43.9779 489.128L-43.6164 491.424L-41.2996 491.23L711.22 428.175L713.76 427.962L713.498 425.427C705.658 349.539 690.399 238.069 670.091 150.338C659.946 106.514 648.497 68.4147 636 43.6319C629.774 31.2867 623.129 21.9153 615.989 16.903C612.375 14.3656 608.543 12.8822 604.531 12.7932C600.507 12.7039 596.549 14.0231 592.705 16.6676C584.352 22.4146 572.279 26.9025 557.112 30.2496C541.979 33.5893 523.94 35.7565 503.786 36.9673C463.478 39.3889 414.929 37.9733 364.67 34.5803C280.005 28.8645 190.712 17.5548 128.139 9.62943C116.425 8.14579 105.647 6.78075 96.0121 5.5932C-2.28962 -6.52236 -84.091 24.0189 -112.922 40.9608Z" fill="black" stroke="black" stroke-width="5"/>
</svg>
