<svg width="375" height="507" viewBox="0 0 375 507" fill="none" xmlns="http://www.w3.org/2000/svg">
<path d="M-123.052 26.0294L-124.585 26.7407L-124.497 28.4279L-100.512 486.285L-100.39 488.608L-98.0645 488.654L656.951 503.5L659.5 503.55V501C659.5 423.459 655.776 309.171 644.591 218.358C639.003 172.993 631.531 133.286 621.649 106.933C616.727 93.807 611.084 83.6461 604.502 77.837C601.169 74.8961 597.507 72.9925 593.516 72.4823C589.512 71.9704 585.432 72.894 581.335 75.1672C572.439 80.1033 559.973 83.3788 544.545 85.1783C529.151 86.9739 510.988 87.281 490.817 86.4002C450.477 84.6387 402.332 78.1372 352.689 69.4578C269.06 54.8365 181.403 34.0766 119.975 19.5285C108.476 16.8051 97.8957 14.2994 88.4332 12.0924C-8.11309 -10.4259 -92.6286 11.9103 -123.052 26.0294Z" fill="#FFFBE1" stroke="black" stroke-width="5"/>
</svg>
