<svg width="375" height="499" viewBox="0 0 375 499" fill="none" xmlns="http://www.w3.org/2000/svg">
<path d="M-33.0384 25.6472L-34.587 26.3543L-34.4965 28.0543L-10.5119 478.526L-10.3882 480.848L-8.06375 480.893L746.952 495.5L749.5 495.549V493C749.5 416.708 745.776 304.26 734.59 214.907C729.002 170.272 721.53 131.198 711.645 105.262C706.721 92.3428 701.074 82.3382 694.487 76.6187C691.152 73.7233 687.493 71.854 683.511 71.3532C679.518 70.8509 675.445 71.7564 671.35 73.9919C662.451 78.8502 649.981 82.0737 634.55 83.8446C619.153 85.6115 600.987 85.9135 580.816 85.0469C540.472 83.3138 492.326 76.9168 442.682 68.3773C359.052 53.9916 271.394 33.5662 209.966 19.2528C198.467 16.5733 187.887 14.1081 178.424 11.9367C81.8881 -10.2161 -2.61867 11.7576 -33.0384 25.6472Z" fill="black" stroke="black" stroke-width="5"/>
</svg>
