<svg width="375" height="918" viewBox="0 0 375 918" fill="none" xmlns="http://www.w3.org/2000/svg">
<path d="M-25.6166 46.6479L-26.5334 47.4251L-26.499 48.6265L-2.51437 884.954L-2.44719 887.296L-0.105131 887.381L754.91 914.498L757.5 914.591V912C757.5 770.424 753.777 561.81 742.604 396.113C737.019 313.291 729.566 241.071 719.758 193.293C714.87 169.487 709.336 151.41 702.972 141.151C699.812 136.058 696.137 132.379 691.768 131.359C687.191 130.29 682.799 132.32 678.768 136.406C660.991 154.423 629.287 159.977 588.907 156.757C548.692 153.549 500.638 141.703 451.019 125.856C367.44 99.1649 279.834 61.2669 218.403 34.692C206.9 29.7157 196.315 25.1365 186.845 21.1022C89.7989 -20.2429 4.86482 20.8088 -25.6166 46.6479Z" fill="black" stroke="black" stroke-width="5"/>
</svg>
