<svg width="357" height="79" viewBox="0 0 357 79" fill="none" xmlns="http://www.w3.org/2000/svg">
<path d="M10.9464 25.9255C12.4393 27.6214 13.9529 29.2221 15.4871 30.7276C17.018 32.2104 18.5715 33.69 20.1476 35.1663C21.7463 36.6393 23.3791 38.188 25.046 39.8124L25.5377 46.9698L25.199 47.0193C23.5025 45.1916 21.9275 43.5653 20.4742 42.1403C19.0435 40.712 17.676 39.4012 16.3719 38.2081C15.0644 36.9924 13.7716 35.7976 12.4933 34.6237C11.2117 33.4273 9.88308 32.1454 8.50739 30.7783C8.4983 29.9264 8.63317 29.1918 8.91199 28.5746C9.2134 27.9541 9.56351 27.4303 9.96233 27.0031C10.3611 26.5759 10.6892 26.2167 10.9464 25.9255ZM10.9464 25.9255L9.13229 29.3726C9.20482 29.8693 9.3367 30.7725 9.52792 32.082C9.71585 33.369 9.9285 34.8253 10.1659 36.4509C10.3703 37.8508 10.6218 39.336 10.9203 40.9066C11.2188 42.4772 11.6086 44.3573 12.0898 46.5468L15.6143 46.7586L15.328 48.1148C14.7118 48.1586 13.9747 48.2432 13.1168 48.3685C12.2555 48.4712 11.4523 48.577 10.7072 48.6857C10.0299 48.7847 9.29774 48.9031 8.51079 49.0411C7.74643 49.1757 7.01593 49.3055 6.3193 49.4303L5.6911 48.2076L9.00785 46.9969C8.85369 45.1516 8.6772 43.3902 8.47838 41.7128C8.29885 40.0095 8.09039 38.3451 7.85301 36.7195C7.65849 35.3873 7.44468 34.0811 7.2116 32.8007C6.9978 31.4945 6.77106 30.1786 6.53138 28.8531L2.87564 28.453L3.08918 27.0728C4.49893 26.9361 5.88115 26.7689 7.23584 26.5711C7.77772 26.4919 8.41956 26.3867 9.16134 26.2553C9.92571 26.1206 10.5207 26.0107 10.9464 25.9255ZM26.9996 23.5813L27.6666 24.8329L24.7901 25.9793C25.0041 28.3924 25.2256 30.6199 25.4546 32.6619C25.7062 34.7005 25.9787 36.7246 26.2721 38.734C26.4567 39.9984 26.656 41.2837 26.8698 42.59C27.0803 43.8736 27.3023 45.2363 27.5359 46.678L25.4023 46.9896L24.7832 45.5926C24.6828 44.4313 24.573 43.3635 24.4538 42.3893C24.3539 41.3893 24.2182 40.3022 24.0468 39.1282C23.7731 37.2542 23.4345 35.2513 23.031 33.1195C22.6468 30.9619 22.1945 28.7335 21.6743 26.4343L18.624 26.1534L18.8375 24.7732C19.5408 24.6936 20.2118 24.6302 20.8506 24.583C21.486 24.5133 22.1537 24.4273 22.8537 24.3251C23.5762 24.2196 24.297 24.1028 25.0162 23.9747C25.7355 23.8466 26.3966 23.7155 26.9996 23.5813Z" fill="white"/>
<path d="M43.2251 29.2557C44.3577 29.1182 45.4299 29.2408 46.4418 29.6237C47.4763 30.0037 48.3386 30.669 49.0286 31.6196C49.7386 32.5447 50.1857 33.7661 50.37 35.2838C49.8826 35.4349 49.2354 35.5939 48.4282 35.7609C47.621 35.9279 46.7331 36.0931 45.7646 36.2567C44.7934 36.3976 43.8207 36.5272 42.8467 36.6455C42.1219 36.7335 41.4976 36.7978 40.9739 36.8384C40.4501 36.879 40.0963 36.899 39.9123 36.8983L39.7143 35.2674C39.9634 35.2372 40.3372 35.1918 40.8355 35.1313C41.3565 35.068 41.9327 34.9866 42.5642 34.8869C43.1957 34.7873 43.8032 34.679 44.3866 34.5622C44.9927 34.4426 45.4955 34.3241 45.8949 34.2067C45.8145 33.7337 45.6209 33.2746 45.3139 32.8291C45.0269 32.3583 44.6249 31.9819 44.108 31.6999C43.5911 31.4179 42.9589 31.3222 42.2114 31.413C41.8106 31.8984 41.5211 32.5427 41.3428 33.3458C41.1617 34.1263 41.1317 35.0149 41.2527 36.0116C41.5002 38.0502 42.1022 39.5056 43.0586 40.3778C44.0348 41.2247 45.1459 41.5725 46.3917 41.4212C47.6602 41.2672 48.9416 40.6519 50.236 39.5753L51.1732 41.0475C50.3065 42.0492 49.3416 42.8099 48.2784 43.3298C47.2152 43.8496 46.14 44.1755 45.0528 44.3075C43.7843 44.4616 42.5621 44.3341 41.3862 43.9253C40.2301 43.491 39.245 42.7602 38.4306 41.7328C37.639 40.7026 37.1428 39.3608 36.942 37.7072C36.7385 36.031 36.9091 34.5967 37.4538 33.4043C38.0185 32.1864 38.8101 31.2284 39.8286 30.5301C40.8698 29.829 42.0019 29.4042 43.2251 29.2557Z" fill="white"/>
<path d="M64.8158 26.913C64.9431 27.7258 65.0625 28.4591 65.1738 29.113C65.3079 29.7646 65.409 30.3163 65.4772 30.7681C65.5273 31.4969 65.5876 32.2132 65.6582 32.917C65.7287 33.6209 65.8037 34.3701 65.8834 35.1647C65.9607 35.9367 66.0403 36.7313 66.1222 37.5487C66.2018 38.3433 66.303 39.239 66.4258 40.2357C66.5463 41.2097 66.6839 42.354 66.8385 43.6685C66.9955 45.0058 67.1763 46.5814 67.3809 48.3955L70.8684 48.8716L70.5247 50.2476C69.9299 50.2613 69.1772 50.3023 68.2668 50.3706C67.3564 50.4389 66.4016 50.5231 65.4027 50.6232C64.2902 50.7346 63.3831 50.837 62.6816 50.9302C61.98 51.0234 61.3023 51.1257 60.6485 51.2371L60.0045 49.9601L62.6267 49.0094C62.6266 48.5508 62.5857 47.9128 62.5038 47.0954C62.4446 46.2758 62.3672 45.3892 62.2717 44.4357C62.2011 43.5025 62.126 42.6386 62.0464 41.844C61.9645 41.0266 61.9031 40.4136 61.8622 40.005C61.7575 38.9606 61.6461 37.9627 61.5278 37.0114C61.4323 36.0579 61.305 35.0157 61.1458 33.8851C61.0094 32.7522 60.8161 31.3956 60.5661 29.8154L57.6542 29.5912L57.1397 28.2324C57.5234 28.1711 58.0433 28.096 58.6994 28.0074C59.3556 27.9187 60.0571 27.8255 60.8041 27.7277C61.5488 27.6072 62.2696 27.4777 62.9666 27.339C63.6863 27.1981 64.3027 27.0561 64.8158 26.913ZM69.7846 26.3808C71.0787 26.2511 72.1924 26.495 73.1257 27.1123C74.0794 27.7048 74.8277 28.5356 75.3705 29.6049C75.9111 30.6515 76.2428 31.7877 76.3656 33.0138C76.4953 34.3079 76.3706 35.5816 75.9917 36.835C75.6105 38.0657 74.9591 39.117 74.0374 39.989C73.1135 40.8384 71.891 41.3392 70.3698 41.4916C69.1211 41.6167 67.9847 41.3751 66.9606 40.7669C65.9592 40.1563 65.0634 39.3402 64.2731 38.3187L64.8449 36.8167C65.2583 37.5091 65.868 38.1016 66.6741 38.5941C67.5029 39.0844 68.3601 39.2851 69.2455 39.1964C69.9266 39.1282 70.4715 38.8443 70.8801 38.3447C71.2864 37.8224 71.5655 37.1753 71.7175 36.4033C71.8695 35.6313 71.9045 34.8366 71.8226 34.0193C71.7407 33.202 71.5476 32.4187 71.2432 31.6695C70.9366 30.8976 70.5175 30.2631 69.9862 29.766C69.4548 29.2688 68.8099 29.0124 68.0516 28.9966C67.7406 29.0966 67.3819 29.4077 66.9756 29.93C66.592 30.45 66.2765 31.0778 66.0292 31.8135C65.7818 32.5492 65.6968 33.303 65.7742 34.0749L64.592 31.8887C64.6871 30.7784 64.9821 29.8316 65.4769 29.0482C65.9944 28.2625 66.6323 27.6483 67.3906 27.2054C68.1465 26.7398 68.9445 26.4649 69.7846 26.3808Z" fill="white"/>
<path d="M91.4264 24.49C92.632 24.3953 93.7079 24.6884 94.654 25.3693C95.5984 26.0275 96.1296 27.1073 96.2476 28.6086C96.3244 29.5868 96.366 30.4075 96.3724 31.0707C96.4015 31.7322 96.4138 32.3263 96.4095 32.8531C96.426 33.3553 96.4558 33.8794 96.4987 34.4253C96.5487 35.0623 96.6186 35.5146 96.7083 35.7822C96.819 36.0252 97.0563 36.1325 97.4202 36.1039C97.7387 36.0788 98.2048 35.8934 98.8185 35.5477L99.5506 37.0007C98.7764 37.6338 98.0292 38.1732 97.3089 38.6189C96.5868 39.0418 95.805 39.2864 94.9633 39.3525C94.2581 39.4079 93.6225 39.1832 93.0564 38.6784C92.4885 38.1508 92.1572 37.2842 92.0624 36.0786C91.9748 34.964 91.9345 33.8685 91.9415 32.7922C91.9694 31.6914 91.9503 30.7202 91.8842 29.8785C91.8288 29.1733 91.6817 28.6127 91.443 28.1966C91.2043 27.7804 90.8399 27.5115 90.3496 27.3899C89.3068 27.5176 88.3211 27.7896 87.3925 28.2059C86.464 28.6222 85.5198 29.1313 84.56 29.7331L83.5575 28.3356C84.7791 27.2783 86.0263 26.4021 87.2992 25.707C88.5948 25.0101 89.9705 24.6044 91.4264 24.49ZM94.27 29.6567L92.4453 32.6496C91.9538 32.8027 91.5191 32.9513 91.1414 33.0954C90.7636 33.2396 90.4181 33.3583 90.105 33.4515C89.3441 33.6715 88.8257 33.9183 88.5496 34.1917C88.2718 34.4425 88.1561 34.8635 88.2026 35.455C88.2401 35.9327 88.3947 36.2982 88.6664 36.5515C88.9381 36.8048 89.29 36.9145 89.7222 36.8805C90.2454 36.8394 90.8863 36.5487 91.6449 36.0084C92.4245 35.4436 93.0692 34.7635 93.5789 33.9682L94.3371 35.3162C94.0089 35.7998 93.5295 36.3982 92.8989 37.1115C92.2911 37.823 91.5414 38.477 90.6499 39.0735C89.7565 39.6473 88.7526 39.9779 87.6379 40.0655C87.0692 40.1102 86.5003 40.0062 85.9311 39.7533C85.3829 39.476 84.9027 39.0445 84.4904 38.4589C84.101 37.8716 83.8705 37.1229 83.799 36.213C83.7239 35.2576 83.9501 34.496 84.4777 33.9281C85.0262 33.3357 85.7893 32.8523 86.767 32.4779C87.7446 32.1035 88.8282 31.7666 90.0178 31.4671C90.8259 31.2663 91.5746 31.0358 92.2637 30.7756C92.951 30.4927 93.6197 30.1198 94.27 29.6567Z" fill="white"/>
<path d="M111.717 12.4996C111.931 16.3727 112.161 20.3249 112.408 24.3561C112.676 28.3632 112.958 32.2322 113.255 35.9631L115.998 36.5154L115.426 37.8191C115.015 37.8214 114.627 37.8337 114.263 37.856C113.919 37.8542 113.497 37.8686 112.996 37.8992C112.517 37.9057 111.856 37.9347 111.013 37.9863C110.261 38.0322 109.636 38.0819 109.136 38.1354C108.658 38.1646 108.226 38.2025 107.84 38.2489C107.453 38.2726 107.021 38.3105 106.544 38.3625L105.817 37.1382L108.472 36.2557C108.369 33.816 108.239 31.3207 108.083 28.7699C107.948 26.1949 107.787 23.7473 107.6 21.427C107.433 19.0825 107.251 17.0362 107.053 15.2881L104.085 14.9896L103.662 13.6781C104.183 13.6005 104.886 13.5118 105.772 13.4119C106.657 13.312 107.621 13.1845 108.663 13.0293C109.728 12.8727 110.746 12.6961 111.717 12.4996Z" fill="white"/>
<path d="M143.443 25.964L143.543 28.8031L134.923 29.1059L134.824 26.2668L143.443 25.964Z" fill="white"/>
<path d="M172.996 13.0143C174.251 13.0086 175.529 13.1511 176.831 13.4418C178.133 13.7096 179.253 14.081 180.191 14.5559C179.968 15.675 179.767 16.6571 179.588 17.5022C179.409 18.3245 179.231 19.1809 179.052 20.0717L176.862 20.0816L176.502 16.3525C176.181 15.8977 175.677 15.5577 174.992 15.3326C174.329 15.0846 173.632 14.9623 172.902 14.9657C172.012 14.9697 171.215 15.2243 170.51 15.7296C169.805 16.2348 169.454 16.9665 169.459 17.9249C169.462 18.6779 169.739 19.3155 170.289 19.8378C170.862 20.3372 171.583 20.8017 172.452 21.2312C173.343 21.6379 174.281 22.0672 175.264 22.519C176.247 22.9709 177.174 23.5143 178.044 24.1493C178.937 24.7613 179.659 25.5338 180.211 26.4668C180.785 27.3997 181.076 28.5621 181.082 29.954C181.089 31.4599 180.673 32.694 179.833 33.6562C178.993 34.5956 177.901 35.2851 176.556 35.7248C175.235 36.1643 173.821 36.3875 172.315 36.3944C170.923 36.4008 169.554 36.2359 168.206 35.8997C166.858 35.5636 165.692 35.0898 164.708 34.4782C164.955 33.4502 165.156 32.5366 165.312 31.7372C165.491 30.915 165.657 29.9445 165.812 28.8257L168.037 28.8155L168.536 33.2628C169.063 33.6254 169.623 33.9081 170.217 34.1108C170.834 34.3133 171.473 34.4131 172.135 34.4101C173.208 34.4052 174.142 34.1385 174.938 33.6101C175.757 33.0587 176.164 32.1669 176.158 30.9348C176.154 29.9765 175.876 29.2019 175.326 28.6112C174.799 28.0203 174.112 27.5214 173.266 27.1146C172.419 26.7077 171.516 26.3125 170.556 25.929C169.619 25.5453 168.727 25.0931 167.88 24.5721C167.034 24.0511 166.335 23.3812 165.783 22.5623C165.255 21.7432 164.988 20.6834 164.982 19.3828C164.975 17.9681 165.335 16.7914 166.061 15.8525C166.81 14.9136 167.787 14.2132 168.995 13.7513C170.225 13.2665 171.558 13.0208 172.996 13.0143Z" fill="white"/>
<path d="M196.918 36.7701C195.481 36.7426 194.361 36.2305 193.559 35.2338C192.779 34.2375 192.35 32.8029 192.272 30.93C192.241 30.1307 192.237 29.1492 192.26 27.9857C192.282 26.7994 192.322 25.3168 192.379 23.5378L189.957 23.1148L189.573 21.7039C190.896 21.7292 192.197 21.7085 193.477 21.6417C194.779 21.5754 195.99 21.4731 197.111 21.3348C197.045 22.3833 196.97 23.3518 196.884 24.2402C196.822 25.1063 196.782 25.9956 196.765 26.9081C196.748 27.7978 196.762 28.8365 196.808 30.0241C196.851 31.3486 197.141 32.2671 197.679 32.7795C198.217 33.2918 198.749 33.5531 199.273 33.5631C199.823 33.4595 200.343 33.1043 200.834 32.4976C201.325 31.868 201.728 31.1111 202.042 30.2271C202.356 29.3202 202.521 28.4219 202.538 27.5322L203.372 30.458C203.214 31.5732 202.84 32.6159 202.251 33.5859C201.662 34.556 200.905 35.3402 199.981 35.9387C199.08 36.5148 198.059 36.792 196.918 36.7701ZM202.644 36.2978C202.634 35.613 202.603 34.8821 202.549 34.1051C202.518 33.3286 202.502 32.404 202.5 31.3313L202.439 23.7647L199.983 23.3068L199.599 21.8959C200.945 21.9217 202.247 21.901 203.503 21.8338C204.76 21.7666 205.96 21.664 207.103 21.5262C207.103 21.5262 207.087 21.7883 207.054 22.3126C207.044 22.8373 207.02 23.4873 206.983 24.2625C206.968 25.0382 206.941 25.8136 206.904 26.5888C206.867 27.3412 206.832 27.9796 206.799 28.5038C206.789 29.0286 206.784 29.2909 206.784 29.2909C206.792 30.067 206.812 30.8091 206.844 31.5172C206.899 32.2029 206.96 33.1626 207.028 34.3963L209.581 35.1641L208.906 36.4178C208.314 36.3608 207.756 36.3273 207.231 36.3172C206.729 36.3076 206.079 36.2952 205.28 36.2799C204.938 36.2733 204.493 36.2762 203.945 36.2885C203.397 36.3009 202.964 36.304 202.644 36.2978Z" fill="white"/>
<path d="M229.742 22.3213C231.042 22.3776 232.08 22.9137 232.859 23.9295C233.66 24.9463 234.072 26.2318 234.096 27.7859C234.101 28.1972 234.073 28.8469 234.012 29.735C233.951 30.6002 233.887 31.5453 233.82 32.5701C233.776 33.596 233.735 34.542 233.697 35.4083L236.231 36.2375L235.629 37.479C235.038 37.4077 234.366 37.3558 233.614 37.3232C232.863 37.2678 232.122 37.2243 231.393 37.1926C230.504 37.1541 229.705 37.1309 228.998 37.1231C228.29 37.1152 227.639 37.1099 227.046 37.107L226.656 35.8225L229.183 35.2126C229.24 34.4385 229.291 33.7898 229.336 33.2665C229.383 32.7204 229.417 32.1852 229.44 31.6609C229.487 31.1147 229.514 30.4764 229.523 29.746C229.561 28.3544 229.354 27.3291 228.903 26.67C228.452 26.011 227.763 25.5586 226.838 25.313C225.806 25.9306 225.041 26.7082 224.544 27.6459C224.046 28.5836 223.79 29.4861 223.776 30.3533L222.576 28.7939C222.792 27.5014 223.229 26.3556 223.889 25.3565C224.572 24.3583 225.416 23.5955 226.421 23.0681C227.427 22.5179 228.534 22.2689 229.742 22.3213ZM224.176 21.9088C224.143 22.661 224.117 23.2765 224.096 23.7553C224.076 24.2112 224.044 24.678 224.001 25.1557C223.981 25.6117 223.932 26.2262 223.852 26.9993L223.644 34.9725L226.109 35.7988L225.61 37.0447C224.837 36.9656 224.108 36.9111 223.424 36.8815C222.741 36.8291 221.989 36.7851 221.169 36.7495C220.28 36.7109 219.504 36.6887 218.842 36.6829C218.203 36.678 217.552 36.6727 216.89 36.6668L216.398 35.3779L218.993 34.771C219.025 34.0415 219.085 33.1876 219.173 32.2093C219.285 31.2093 219.36 30.2647 219.399 29.3756C219.427 28.7145 219.44 28.1669 219.436 27.7328C219.455 27.2769 219.453 26.8086 219.428 26.3279C219.404 25.8244 219.364 25.1717 219.307 24.3699L216.668 23.6046L216.314 22.2874C217.662 22.2773 218.931 22.241 220.122 22.1784C221.336 22.094 222.687 22.0041 224.176 21.9088Z" fill="white"/>
<path d="M260.09 13.4043C259.993 14.8614 259.876 16.4543 259.737 18.1831C259.622 19.9134 259.491 21.8828 259.344 24.0912C259.221 25.9353 259.101 27.7226 258.986 29.4529C258.872 31.1604 258.771 32.6744 258.683 33.9949C258.62 35.2942 258.577 36.2747 258.556 36.9364L261.069 37.8244L260.473 39.0538C259.884 38.9688 259.305 38.9073 258.736 38.8694C258.166 38.8314 257.472 38.7851 256.652 38.7305C256.038 38.6895 255.525 38.6667 255.113 38.6622C254.704 38.6349 254.339 38.622 254.018 38.6235C254.026 38.1666 254.008 37.7424 253.966 37.3508C253.948 36.9379 253.93 36.5137 253.914 36.0781C254.005 35.0551 254.084 34.0313 254.153 33.0068C254.244 31.9838 254.321 30.9942 254.385 30.038C254.429 29.3777 254.472 28.7288 254.515 28.0914C254.557 27.4539 254.59 26.7929 254.613 26.1083C254.682 25.0611 254.735 23.9212 254.772 22.6887C254.831 21.4578 254.868 20.2253 254.881 18.9913C254.918 17.7589 254.924 16.6387 254.899 15.6309L252.163 15.0025L251.953 13.5135C252.34 13.5393 252.877 13.5522 253.563 13.5522C254.249 13.5522 254.992 13.556 255.792 13.5636C256.616 13.55 257.406 13.534 258.162 13.5158C258.919 13.4748 259.562 13.4377 260.09 13.4043ZM250.469 23.4309C251.721 23.5144 252.803 23.9181 253.716 24.6421C254.628 25.3661 255.26 26.3459 255.612 27.5814L254.36 30.4136C254.413 29.6168 254.29 28.8882 253.991 28.228C253.716 27.5465 253.354 26.9849 252.903 26.5432C252.453 26.0787 252.016 25.7866 251.589 25.6666C250.66 25.8791 249.901 26.4574 249.312 27.4015C248.746 28.3471 248.421 29.4574 248.336 30.7323C248.22 32.4626 248.465 33.771 249.069 34.6574C249.673 35.5438 250.396 36.0151 251.238 36.0713C252.035 36.1244 252.815 35.7419 253.579 34.9238C254.365 34.1072 254.942 33.0023 255.309 31.6089L256.265 33.2163C255.54 34.8373 254.606 36.1585 253.463 37.18C252.343 38.203 251.008 38.6629 249.46 38.5597C248.436 38.4914 247.453 38.14 246.512 37.5056C245.595 36.8499 244.867 35.9324 244.329 34.753C243.791 33.5509 243.58 32.0847 243.696 30.3544C243.803 28.7379 244.212 27.4045 244.923 26.3542C245.633 25.3039 246.485 24.5374 247.477 24.0547C248.493 23.5736 249.49 23.3656 250.469 23.4309Z" fill="white"/>
<path d="M277.264 25.483C278.468 25.5887 279.481 26.0556 280.302 26.8835C281.124 27.6886 281.47 28.8413 281.338 30.3415C281.252 31.3189 281.158 32.1352 281.055 32.7904C280.974 33.4476 280.888 34.0356 280.797 34.5544C280.73 35.0525 280.673 35.5743 280.625 36.1198C280.569 36.7563 280.563 37.2139 280.607 37.4926C280.676 37.7506 280.893 37.8956 281.256 37.9275C281.575 37.9555 282.065 37.8496 282.727 37.61L283.209 39.164C282.341 39.6605 281.515 40.069 280.731 40.3896C279.949 40.6874 279.138 40.7994 278.297 40.7256C277.592 40.6638 277.002 40.3371 276.527 39.7457C276.054 39.1316 275.871 38.2222 275.976 37.0174C276.074 35.9037 276.215 34.8166 276.4 33.7562C276.61 32.6752 276.751 31.7141 276.825 30.8731C276.887 30.1684 276.834 29.5912 276.668 29.1414C276.501 28.6915 276.186 28.3661 275.723 28.1651C274.673 28.1188 273.656 28.2242 272.671 28.4814C271.687 28.7386 270.671 29.0846 269.625 29.5197L268.868 27.9757C270.247 27.1348 271.622 26.4767 272.992 26.0014C274.385 25.5281 275.809 25.3553 277.264 25.483ZM279.215 31.0485L276.921 33.6988C276.41 33.7686 275.957 33.8434 275.561 33.9231C275.164 34.0028 274.804 34.0628 274.48 34.1031C273.693 34.1944 273.141 34.3521 272.824 34.5762C272.508 34.7775 272.325 35.1737 272.273 35.7647C272.231 36.242 272.323 36.628 272.549 36.9228C272.775 37.2175 273.104 37.3838 273.536 37.4217C274.059 37.4676 274.739 37.2868 275.576 36.8792C276.438 36.451 277.187 35.8868 277.821 35.1865L278.346 36.6413C277.942 37.064 277.371 37.575 276.631 38.1743C275.914 38.7757 275.066 39.2968 274.088 39.7378C273.113 40.1561 272.068 40.3163 270.954 40.2186C270.386 40.1687 269.842 39.9721 269.322 39.6287C268.827 39.2646 268.425 38.7597 268.115 38.1141C267.828 37.4704 267.725 36.694 267.804 35.7848C267.888 34.8301 268.237 34.1163 268.851 33.6434C269.49 33.1497 270.323 32.7991 271.349 32.5913C272.375 32.3836 273.499 32.2304 274.722 32.1315C275.552 32.067 276.328 31.9633 277.051 31.8206C277.776 31.6551 278.497 31.3978 279.215 31.0485Z" fill="white"/>
<path d="M304.119 28.2186C305.412 28.3612 306.412 28.9652 307.121 30.0305C307.853 31.0984 308.179 32.4084 308.099 33.9607C308.077 34.3714 308.006 35.0178 307.886 35.8998C307.768 36.7592 307.641 37.6979 307.506 38.716C307.393 39.7366 307.29 40.6778 307.194 41.5397L309.667 42.5356L308.984 43.7343C308.399 43.6239 307.733 43.5274 306.984 43.4448C306.238 43.3395 305.502 43.2469 304.777 43.1668C303.892 43.0692 303.097 42.993 302.391 42.9381C301.686 42.8832 301.037 42.8345 300.445 42.7921L300.141 41.4846L302.704 41.0442C302.812 40.2756 302.906 39.6317 302.986 39.1125C303.068 38.5707 303.139 38.039 303.196 37.5174C303.279 36.9755 303.349 36.3405 303.406 35.6122C303.536 34.2262 303.398 33.1894 302.992 32.5019C302.586 31.8143 301.929 31.3171 301.022 31.0104C299.951 31.558 299.137 32.2831 298.578 33.1856C298.019 34.0881 297.704 34.9715 297.631 35.8359L296.538 34.2001C296.839 32.9249 297.352 31.8107 298.077 30.8577C298.825 29.9071 299.718 29.2022 300.755 28.7428C301.796 28.2607 302.917 28.086 304.119 28.2186ZM298.592 27.4367C298.51 28.1851 298.442 28.7975 298.39 29.2737C298.34 29.7274 298.277 30.191 298.202 30.6648C298.152 31.1184 298.061 31.7283 297.931 32.4944L297.192 40.4361L299.597 41.4245L299.016 42.6345C298.25 42.5041 297.527 42.4013 296.846 42.3262C296.168 42.2285 295.421 42.1346 294.605 42.0445C293.72 41.9469 292.948 41.8731 292.288 41.8233C291.65 41.7759 291.001 41.7272 290.341 41.6773L289.935 40.3585L292.566 39.9256C292.646 39.1999 292.762 38.3519 292.915 37.3816C293.093 36.3912 293.231 35.4537 293.329 34.5692C293.401 33.9115 293.45 33.3659 293.475 32.9325C293.525 32.4789 293.554 32.0114 293.561 31.5302C293.571 31.0262 293.574 30.3723 293.571 29.5685L290.988 28.6293L290.723 27.2915C292.069 27.3711 293.337 27.4193 294.529 27.436C295.746 27.4325 297.101 27.4328 298.592 27.4367Z" fill="white"/>
<path d="M330.501 44.1405C329.639 44.7401 328.644 45.2186 327.515 45.5758C326.409 45.9361 325.177 46.0266 323.82 45.8473C322.191 45.6322 320.87 45.0895 319.857 44.2192C318.867 43.3519 318.175 42.3168 317.782 41.1141C317.388 39.9113 317.274 38.6878 317.438 37.4437C317.605 36.1769 318.048 35.004 318.766 33.925C319.484 32.846 320.456 32.0193 321.683 31.4448C322.935 30.8507 324.443 30.6701 326.208 30.9032C327.158 31.0287 328.071 31.2643 328.946 31.61C329.846 31.9361 330.681 32.4145 331.449 33.0454C330.977 34.1799 330.622 35.1227 330.385 35.8739C330.15 36.6025 329.921 37.2971 329.695 37.9578L327.999 37.7337L327.897 34.5787C327.395 34.029 326.799 33.5706 326.111 33.2035C325.423 32.8364 324.714 32.6277 323.984 32.5773C323.435 33.0801 322.973 33.6982 322.6 34.4314C322.25 35.1677 322.021 35.943 321.913 36.7574C321.752 37.9789 321.828 39.0592 322.141 39.9982C322.454 40.9372 322.929 41.7018 323.564 42.2921C324.226 42.8628 324.975 43.2034 325.812 43.3139C326.377 43.3886 326.992 43.3547 327.655 43.2121C328.344 43.0499 329.06 42.7648 329.805 42.3568L330.501 44.1405Z" fill="white"/>
<path d="M345.89 33.6653C347.018 33.8358 348.019 34.2408 348.891 34.8804C349.786 35.5234 350.439 36.3952 350.85 37.4957C351.286 38.577 351.39 39.8735 351.162 41.3852C350.652 41.4004 349.986 41.3805 349.163 41.3254C348.341 41.2703 347.441 41.192 346.464 41.0905C345.491 40.9664 344.519 40.831 343.549 40.6844C342.827 40.5753 342.208 40.4702 341.692 40.3692C341.177 40.2682 340.831 40.1928 340.653 40.143L340.899 38.5185C341.147 38.5561 341.519 38.6123 342.016 38.6874C342.535 38.7658 343.112 38.8415 343.747 38.9144C344.382 38.9873 344.996 39.0455 345.59 39.0891C346.206 39.136 346.722 39.1564 347.138 39.1501C347.187 38.6729 347.123 38.1786 346.947 37.6673C346.796 37.1368 346.51 36.6666 346.087 36.2566C345.664 35.8465 345.081 35.5852 344.336 35.4727C343.82 35.8332 343.369 36.3765 342.982 37.1027C342.599 37.8063 342.332 38.6544 342.182 39.6471C341.875 41.6777 342.066 43.2411 342.754 44.3374C343.468 45.4146 344.446 46.0469 345.687 46.2345C346.95 46.4255 348.349 46.1754 349.885 45.4844L350.394 47.1537C349.291 47.8869 348.157 48.3618 346.994 48.5782C345.83 48.7947 344.707 48.8211 343.624 48.6574C342.361 48.4664 341.217 48.0166 340.194 47.3081C339.196 46.5803 338.442 45.6126 337.932 44.4048C337.445 43.2004 337.326 41.7747 337.575 40.1277C337.827 38.4581 338.375 37.1217 339.219 36.1185C340.089 35.0962 341.108 34.3848 342.277 33.9845C343.467 33.5875 344.672 33.4811 345.89 33.6653Z" fill="white"/>
</svg>
